<svg width="359" height="173" viewBox="0 0 359 173" fill="none" xmlns="http://www.w3.org/2000/svg">
<g filter="url(#filter0_i_1766_1367)">
<rect y="51.998" width="124" height="124" rx="16" transform="rotate(-14 0 51.998)" fill="#FAFAFA"/>
<rect x="0.606109" y="52.3622" width="123" height="123" rx="15.5" transform="rotate(-14 0.606109 52.3622)" stroke="#AEAEAE"/>
<path d="M61.9079 135.683L60.3751 129.535C65.7502 122.523 70.3644 116.161 74.2175 110.452C78.1328 104.726 80.9379 99.4427 82.6329 94.6008C84.3279 89.759 84.6335 85.1646 83.5496 80.8176C82.5742 76.9054 80.69 74.1102 77.8971 72.432C75.1507 70.6763 71.9146 70.2629 68.1887 71.1919C65.3321 71.9041 63.0651 73.1289 61.3876 74.8663C59.7101 76.6038 58.63 78.621 58.1474 80.918C57.6647 83.215 57.7176 85.5434 58.3059 87.9031L50.5746 89.8307C49.5684 85.5304 49.5864 81.6344 50.6286 78.1425C51.7174 74.5731 53.613 71.594 56.3154 69.2053C59.0799 66.8011 62.4493 65.1035 66.4236 64.1126C72.8198 62.5178 78.229 63.049 82.6511 65.7061C87.0733 68.3632 90.0276 72.6725 91.514 78.634C92.4894 82.5463 92.5878 86.5123 91.8091 90.5321C91.015 94.4897 89.631 98.4626 87.6571 102.451C85.6833 106.439 83.3369 110.387 80.618 114.297C77.8992 118.207 75.1183 122.001 72.2754 125.678L103.201 117.967L104.942 124.953L61.9079 135.683Z" fill="#242424"/>
</g>
<g filter="url(#filter1_i_1766_1367)">
<rect x="75" y="18.6494" width="124" height="124" rx="16" transform="rotate(-4 75 18.6494)" fill="#FAFAFA"/>
<rect x="75.5337" y="19.1133" width="123" height="123" rx="15.5" transform="rotate(-4 75.5337 19.1133)" stroke="#AEAEAE"/>
<path d="M144.029 110.811C139.624 111.119 135.61 110.597 131.987 109.247C128.423 107.828 125.478 105.628 123.153 102.647C120.827 99.6658 119.41 95.9156 118.901 91.396L127.137 90.8201C127.533 94.6418 129.165 97.7997 132.034 100.294C134.899 102.724 138.725 103.771 143.513 103.437C148.174 103.111 151.699 101.677 154.087 99.1365C156.471 96.5318 157.518 93.1545 157.228 89.0047C157.027 86.1317 156.128 83.8208 154.53 82.072C152.927 80.2594 150.85 78.9932 148.298 78.2735C145.805 77.4855 143.058 77.1964 140.057 77.4062L134.215 77.8147L133.706 70.5365L138.782 70.1815C143.123 69.878 146.506 68.7111 148.931 66.6811C151.419 64.6466 152.538 61.8417 152.288 58.2664C152.078 55.2657 150.853 52.8814 148.612 51.1134C146.435 49.3409 143.431 48.5886 139.6 48.8565C135.898 49.1154 132.971 50.3787 130.819 52.6463C128.664 54.85 127.543 57.623 127.456 60.9652L119.411 61.5277C119.284 57.8797 120.019 54.6205 121.615 51.7502C123.206 48.816 125.478 46.4438 128.431 44.6334C131.447 42.8185 134.999 41.7682 139.085 41.4825C143.49 41.1745 147.215 41.6839 150.259 43.0108C153.366 44.3332 155.778 46.2497 157.493 48.7601C159.204 51.2067 160.169 53.9942 160.388 57.1226C160.62 60.4425 159.804 63.4507 157.939 66.1474C156.07 68.7802 153.767 70.7055 151.029 71.9235L151.07 72.4981C154.917 73.3838 158.181 75.1123 160.863 77.6835C163.545 80.2547 165.047 83.8387 165.368 88.4355C165.64 92.3299 164.96 95.9061 163.328 99.1639C161.759 102.417 159.315 105.09 155.997 107.183C152.743 109.271 148.753 110.48 144.029 110.811Z" fill="#242424"/>
</g>
<g filter="url(#filter2_i_1766_1367)">
<rect x="158.962" width="124" height="124" rx="16" transform="rotate(6 158.962 0)" fill="#FAFAFA"/>
<rect x="159.407" y="0.549525" width="123" height="123" rx="15.5" transform="rotate(6 159.407 0.549525)" stroke="#AEAEAE"/>
<path d="M210.522 102.125C205.939 101.643 202.083 100.369 198.954 98.3026C195.825 96.2362 193.459 93.6387 191.857 90.5102C190.256 87.3816 189.461 83.9196 189.474 80.1241L197.685 80.9871C197.876 84.6753 199.188 87.8056 201.621 90.378C204.06 92.8867 207.316 94.3551 211.39 94.7833C216.163 95.285 220.079 94.1521 223.137 91.3846C226.202 88.5534 227.982 84.7828 228.477 80.0728C228.999 75.1081 228.007 71.0783 225.5 67.9834C223.001 64.8248 219.523 63.0114 215.068 62.5431C211.503 62.1685 208.361 62.6748 205.641 64.0621C202.992 65.3924 200.773 67.2185 198.984 69.5403L191.346 68.7375L200.958 32.3911L236.666 36.1441L235.893 43.4956L206.487 40.4049L200.867 59.8922L201.345 59.9424C202.976 58.505 205.096 57.3121 207.705 56.3637C210.379 55.4219 213.37 55.125 216.68 55.4729C221.072 55.9345 224.79 57.2906 227.836 59.5413C230.951 61.735 233.248 64.6792 234.726 68.3739C236.211 72.005 236.709 76.1437 236.22 80.7901C235.765 85.1183 234.424 88.9994 232.197 92.4334C230.04 95.8104 227.098 98.397 223.37 100.193C219.705 101.996 215.423 102.64 210.522 102.125Z" fill="#242424"/>
</g>
<g filter="url(#filter3_i_1766_1367)">
<rect x="239.179" y="2" width="124" height="124" rx="16" transform="rotate(16 239.179 2)" fill="#FAFAFA"/>
<rect x="239.522" y="2.61845" width="123" height="123" rx="15.5" transform="rotate(16 239.522 2.61845)" stroke="#AEAEAE"/>
<path d="M260.844 107.666L302.549 57.3061L267.298 47.1979L269.309 40.1846L312.588 52.5949L310.816 58.7777L269.057 110.021L260.844 107.666Z" fill="#242424"/>
</g>
<defs>
<filter id="filter0_i_1766_1367" x="0" y="22" width="150.315" height="150.314" filterUnits="userSpaceOnUse" color-interpolation-filters="sRGB">
<feFlood flood-opacity="0" result="BackgroundImageFix"/>
<feBlend mode="normal" in="SourceGraphic" in2="BackgroundImageFix" result="shape"/>
<feColorMatrix in="SourceAlpha" type="matrix" values="0 0 0 0 0 0 0 0 0 0 0 0 0 0 0 0 0 0 127 0" result="hardAlpha"/>
<feOffset/>
<feGaussianBlur stdDeviation="9.3"/>
<feComposite in2="hardAlpha" operator="arithmetic" k2="-1" k3="1"/>
<feColorMatrix type="matrix" values="0 0 0 0 1 0 0 0 0 1 0 0 0 0 1 0 0 0 1 0"/>
<feBlend mode="normal" in2="shape" result="effect1_innerShadow_1766_1367"/>
</filter>
<filter id="filter1_i_1766_1367" x="75" y="10" width="132.348" height="132.348" filterUnits="userSpaceOnUse" color-interpolation-filters="sRGB">
<feFlood flood-opacity="0" result="BackgroundImageFix"/>
<feBlend mode="normal" in="SourceGraphic" in2="BackgroundImageFix" result="shape"/>
<feColorMatrix in="SourceAlpha" type="matrix" values="0 0 0 0 0 0 0 0 0 0 0 0 0 0 0 0 0 0 127 0" result="hardAlpha"/>
<feOffset/>
<feGaussianBlur stdDeviation="9.3"/>
<feComposite in2="hardAlpha" operator="arithmetic" k2="-1" k3="1"/>
<feColorMatrix type="matrix" values="0 0 0 0 1 0 0 0 0 1 0 0 0 0 1 0 0 0 1 0"/>
<feBlend mode="normal" in2="shape" result="effect1_innerShadow_1766_1367"/>
</filter>
<filter id="filter2_i_1766_1367" x="146" y="0" width="136.282" height="136.282" filterUnits="userSpaceOnUse" color-interpolation-filters="sRGB">
<feFlood flood-opacity="0" result="BackgroundImageFix"/>
<feBlend mode="normal" in="SourceGraphic" in2="BackgroundImageFix" result="shape"/>
<feColorMatrix in="SourceAlpha" type="matrix" values="0 0 0 0 0 0 0 0 0 0 0 0 0 0 0 0 0 0 127 0" result="hardAlpha"/>
<feOffset/>
<feGaussianBlur stdDeviation="9.3"/>
<feComposite in2="hardAlpha" operator="arithmetic" k2="-1" k3="1"/>
<feColorMatrix type="matrix" values="0 0 0 0 1 0 0 0 0 1 0 0 0 0 1 0 0 0 1 0"/>
<feBlend mode="normal" in2="shape" result="effect1_innerShadow_1766_1367"/>
</filter>
<filter id="filter3_i_1766_1367" x="205" y="2" width="153.375" height="153.376" filterUnits="userSpaceOnUse" color-interpolation-filters="sRGB">
<feFlood flood-opacity="0" result="BackgroundImageFix"/>
<feBlend mode="normal" in="SourceGraphic" in2="BackgroundImageFix" result="shape"/>
<feColorMatrix in="SourceAlpha" type="matrix" values="0 0 0 0 0 0 0 0 0 0 0 0 0 0 0 0 0 0 127 0" result="hardAlpha"/>
<feOffset/>
<feGaussianBlur stdDeviation="9.3"/>
<feComposite in2="hardAlpha" operator="arithmetic" k2="-1" k3="1"/>
<feColorMatrix type="matrix" values="0 0 0 0 1 0 0 0 0 1 0 0 0 0 1 0 0 0 1 0"/>
<feBlend mode="normal" in2="shape" result="effect1_innerShadow_1766_1367"/>
</filter>
</defs>
</svg>
